<?xml version="1.0" encoding="utf-8"?><!DOCTYPE svg PUBLIC "-//W3C//DTD SVG 1.1//EN" "http://www.w3.org/Graphics/SVG/1.1/DTD/svg11.dtd"><svg xmlns="http://www.w3.org/2000/svg" viewBox="0 0 211 58"><defs><style>.cls-1{fill:#fff;}</style></defs><title>Artboard 1</title><g id="Layer_1" data-name="Layer 1"><path class="cls-1" d="M72.35,42.75H70.92l-3.51-5.69h0l0,.32q.07.91.07,1.66v3.71H66.4V35.61h1.42l3.5,5.66h0q0-.11,0-.82t0-1.1V35.61h1.07Z"/><path class="cls-1" d="M73,37.35h1.25l1.1,3.06a5.81,5.81,0,0,1,.33,1.23h0a5.11,5.11,0,0,1,.16-.65q.12-.38,1.24-3.64h1.24L76,43.47a2.19,2.19,0,0,1-2.1,1.68,3.28,3.28,0,0,1-.74-.08v-.91a2.69,2.69,0,0,0,.59.06,1.21,1.21,0,0,0,1.17-1l.2-.51Z"/><path class="cls-1" d="M85,42.75,84.82,42h-.06a1.63,1.63,0,0,1-.68.59,2.27,2.27,0,0,1-1,.21,2,2,0,0,1-1.46-.49,2,2,0,0,1-.48-1.48V37.35h1.16v3.33a1.44,1.44,0,0,0,.25.93,1,1,0,0,0,.8.31,1.27,1.27,0,0,0,1.06-.43A2.39,2.39,0,0,0,84.73,40V37.35h1.15v5.4Z"/><path class="cls-1" d="M92,42.75H90.81V39.43a1.45,1.45,0,0,0-.25-.93,1,1,0,0,0-.8-.31,1.27,1.27,0,0,0-1.06.43,2.37,2.37,0,0,0-.34,1.44v2.69H87.22v-5.4h.9l.16.71h.06a1.6,1.6,0,0,1,.69-.6,2.33,2.33,0,0,1,1-.21,1.73,1.73,0,0,1,1.94,2Z"/><path class="cls-1" d="M95.09,42.85a1.88,1.88,0,0,1-1.58-.73,4,4,0,0,1,0-4.12,1.9,1.9,0,0,1,1.59-.74,1.86,1.86,0,0,1,1.62.79h.06a6.91,6.91,0,0,1-.08-.92v-2h1.15v7.6H97l-.2-.71H96.7A1.83,1.83,0,0,1,95.09,42.85Zm.31-.93a1.25,1.25,0,0,0,1-.4,2.09,2.09,0,0,0,.33-1.29v-.16a2.42,2.42,0,0,0-.33-1.45,1.23,1.23,0,0,0-1-.43,1.06,1.06,0,0,0-.93.49,2.52,2.52,0,0,0-.33,1.4,2.46,2.46,0,0,0,.32,1.37A1.07,1.07,0,0,0,95.39,41.92Z"/><path class="cls-1" d="M101.55,42.85a2.61,2.61,0,0,1-2-.73,2.79,2.79,0,0,1-.71-2A3.06,3.06,0,0,1,99.53,38a2.28,2.28,0,0,1,1.81-.76,2.23,2.23,0,0,1,1.69.65,2.48,2.48,0,0,1,.62,1.79v.62h-3.6a1.77,1.77,0,0,0,.42,1.21,1.48,1.48,0,0,0,1.13.42,4.21,4.21,0,0,0,.89-.09,4.73,4.73,0,0,0,.89-.3v.93a3.52,3.52,0,0,1-.85.28A5.19,5.19,0,0,1,101.55,42.85Zm-.21-4.73a1.15,1.15,0,0,0-.88.35,1.65,1.65,0,0,0-.39,1h2.45a1.5,1.5,0,0,0-.32-1A1.11,1.11,0,0,0,101.34,38.12Z"/><path class="cls-1" d="M107.4,37.25a2.79,2.79,0,0,1,.57,0l-.11,1.07a2.17,2.17,0,0,0-.51-.06,1.47,1.47,0,0,0-1.12.45,1.62,1.62,0,0,0-.43,1.17v2.82h-1.15v-5.4h.9l.15,1h.06a2.14,2.14,0,0,1,.7-.77A1.67,1.67,0,0,1,107.4,37.25Z"/><path class="cls-1" d="M113.42,42.75h-1.15V39.43a1.45,1.45,0,0,0-.25-.93,1,1,0,0,0-.8-.31,1.27,1.27,0,0,0-1.06.43,2.39,2.39,0,0,0-.34,1.45v2.68h-1.15v-7.6h1.15v1.93a9,9,0,0,1-.06,1h.07a1.59,1.59,0,0,1,.65-.61,2.1,2.1,0,0,1,1-.21,1.74,1.74,0,0,1,2,2Z"/><path class="cls-1" d="M118.09,42.75l-.23-.75h0a2.21,2.21,0,0,1-.79.67,2.5,2.5,0,0,1-1,.18,1.72,1.72,0,0,1-1.24-.43,1.61,1.61,0,0,1-.45-1.22,1.43,1.43,0,0,1,.62-1.26,3.58,3.58,0,0,1,1.89-.46l.93,0v-.29a1.1,1.1,0,0,0-.24-.77,1,1,0,0,0-.75-.26,2.6,2.6,0,0,0-.8.12,6,6,0,0,0-.73.29l-.37-.82a4,4,0,0,1,1-.35,4.46,4.46,0,0,1,1-.12,2.33,2.33,0,0,1,1.56.45,1.76,1.76,0,0,1,.52,1.41v3.64ZM116.39,42a1.42,1.42,0,0,0,1-.35,1.26,1.26,0,0,0,.38-1v-.47l-.69,0a2.36,2.36,0,0,0-1.18.27.82.82,0,0,0-.37.74.72.72,0,0,0,.21.56A.93.93,0,0,0,116.39,42ZM118,35.58a1.08,1.08,0,0,1-.32.81,1.17,1.17,0,0,1-.85.31,1.15,1.15,0,0,1-.84-.31,1.19,1.19,0,0,1,0-1.6,1.15,1.15,0,0,1,.84-.31,1.19,1.19,0,0,1,.84.3A1,1,0,0,1,118,35.58Zm-.65,0a.5.5,0,0,0-.15-.38.51.51,0,0,0-.37-.14.52.52,0,0,0-.38.14.5.5,0,0,0-.15.38.46.46,0,0,0,.52.52.53.53,0,0,0,.37-.13A.49.49,0,0,0,117.35,35.59Z"/><path class="cls-1" d="M121.36,42.75h-1.15v-7.6h1.15Z"/><path class="cls-1" d="M123.85,42.75H122.7v-7.6h1.15Z"/><path class="cls-1" d="M129.94,42.75h-1.15V39.43a1.45,1.45,0,0,0-.25-.93,1,1,0,0,0-.8-.31,1.27,1.27,0,0,0-1.06.43,2.37,2.37,0,0,0-.34,1.44v2.69h-1.15v-5.4h.9l.16.71h.06a1.6,1.6,0,0,1,.69-.6,2.33,2.33,0,0,1,1-.21,1.73,1.73,0,0,1,1.94,2Z"/><path class="cls-1" d="M131.17,35.92a.64.64,0,0,1,.17-.47.65.65,0,0,1,.48-.17.58.58,0,0,1,.64.64.63.63,0,0,1-.17.46.64.64,0,0,1-.47.17.65.65,0,0,1-.48-.17A.63.63,0,0,1,131.17,35.92Zm1.22,6.83h-1.15v-5.4h1.15Z"/><path class="cls-1" d="M138.48,42.75h-1.15V39.43a1.45,1.45,0,0,0-.25-.93,1,1,0,0,0-.8-.31,1.27,1.27,0,0,0-1.06.43,2.37,2.37,0,0,0-.34,1.44v2.69h-1.15v-5.4h.9l.16.71h.06a1.6,1.6,0,0,1,.69-.6,2.33,2.33,0,0,1,1-.21,1.73,1.73,0,0,1,1.94,2Z"/><path class="cls-1" d="M144.34,37.35V38l-.92.17a1.49,1.49,0,0,1,.21.42,1.66,1.66,0,0,1,.08.53,1.62,1.62,0,0,1-.58,1.31,2.41,2.41,0,0,1-1.59.48,2.55,2.55,0,0,1-.47,0,.65.65,0,0,0-.37.54.3.3,0,0,0,.17.28,1.51,1.51,0,0,0,.64.09h.94a2.1,2.1,0,0,1,1.36.38,1.34,1.34,0,0,1,.46,1.1,1.6,1.6,0,0,1-.76,1.42,4,4,0,0,1-2.19.5,3,3,0,0,1-1.68-.39,1.26,1.26,0,0,1-.58-1.11,1.19,1.19,0,0,1,.31-.84,1.69,1.69,0,0,1,.88-.47.87.87,0,0,1-.38-.31.8.8,0,0,1-.15-.46.79.79,0,0,1,.17-.51,2,2,0,0,1,.51-.42,1.5,1.5,0,0,1-.68-.59,1.73,1.73,0,0,1-.26-1,1.71,1.71,0,0,1,.55-1.36,2.33,2.33,0,0,1,1.58-.48l.48,0,.38.07Zm-4.24,6.24a.63.63,0,0,0,.33.57,1.83,1.83,0,0,0,.94.2,2.84,2.84,0,0,0,1.4-.27.8.8,0,0,0,.46-.71.54.54,0,0,0-.25-.5,2,2,0,0,0-.94-.15h-.87a1.22,1.22,0,0,0-.78.23A.76.76,0,0,0,140.09,43.59Zm.49-4.49a1.09,1.09,0,0,0,.26.78,1,1,0,0,0,.75.27q1,0,1-1.06a1.2,1.2,0,0,0-.25-.81.93.93,0,0,0-.75-.29,1,1,0,0,0-.75.28A1.19,1.19,0,0,0,140.59,39.1Z"/><path class="cls-1" d="M84.68,49h-.79v2.72h-.69V49h-.53v-.32l.53-.21v-.21a1.18,1.18,0,0,1,.27-.85,1.11,1.11,0,0,1,.82-.28,2.2,2.2,0,0,1,.71.12l-.18.52a1.59,1.59,0,0,0-.49-.08.4.4,0,0,0-.34.14.73.73,0,0,0-.11.44v.21h.79Z"/><path class="cls-1" d="M88,50.13a1.77,1.77,0,0,1-.41,1.24,1.46,1.46,0,0,1-1.13.45,1.55,1.55,0,0,1-.8-.21,1.35,1.35,0,0,1-.54-.59,2,2,0,0,1-.19-.89,1.76,1.76,0,0,1,.4-1.23,1.47,1.47,0,0,1,1.14-.44,1.42,1.42,0,0,1,1.11.45A1.75,1.75,0,0,1,88,50.13Zm-2.46-2.47a.32.32,0,0,1,.1-.26.37.37,0,0,1,.24-.08.35.35,0,0,1,.25.59.33.33,0,0,1-.25.09.35.35,0,0,1-.24-.08A.32.32,0,0,1,85.51,47.65Zm.1,2.47q0,1.12.83,1.12t.82-1.12q0-1.11-.83-1.11a.7.7,0,0,0-.63.29A1.46,1.46,0,0,0,85.6,50.13Zm1.05-2.47a.32.32,0,0,1,.1-.26.37.37,0,0,1,.24-.08.34.34,0,0,1,.25.09.38.38,0,0,1,0,.5A.35.35,0,0,1,87,48a.35.35,0,0,1-.24-.08A.32.32,0,0,1,86.66,47.65Z"/><path class="cls-1" d="M90.25,48.45a1.66,1.66,0,0,1,.34,0l-.07.64a1.3,1.3,0,0,0-.3,0,.88.88,0,0,0-.67.27,1,1,0,0,0-.26.7v1.69h-.69V48.51h.54l.09.57h0a1.28,1.28,0,0,1,.42-.46A1,1,0,0,1,90.25,48.45Z"/><path class="cls-1" d="M94.45,50.83a.85.85,0,0,1-.35.73,1.65,1.65,0,0,1-1,.25,2.34,2.34,0,0,1-1-.2V51a2.55,2.55,0,0,0,1.06.26q.64,0,.64-.38a.3.3,0,0,0-.07-.21.83.83,0,0,0-.23-.17,4,4,0,0,0-.45-.2,2.07,2.07,0,0,1-.76-.43.8.8,0,0,1-.2-.56.74.74,0,0,1,.34-.65,1.59,1.59,0,0,1,.91-.23,2.58,2.58,0,0,1,1.08.23l-.22.52A2.4,2.4,0,0,0,93.3,49q-.54,0-.54.31a.31.31,0,0,0,.14.26,3.12,3.12,0,0,0,.62.29,2.83,2.83,0,0,1,.58.28.86.86,0,0,1,.27.3A.87.87,0,0,1,94.45,50.83Z"/><path class="cls-1" d="M96.2,51.25a1.67,1.67,0,0,0,.5-.08v.52a1.45,1.45,0,0,1-.29.08,2.12,2.12,0,0,1-.37,0q-1,0-1-1V49h-.44v-.3l.47-.25.23-.69h.42v.72h.92V49h-.92v1.73a.48.48,0,0,0,.12.37A.45.45,0,0,0,96.2,51.25Z"/><path class="cls-1" d="M100,50.13a1.77,1.77,0,0,1-.41,1.24,1.46,1.46,0,0,1-1.13.45,1.55,1.55,0,0,1-.8-.21,1.35,1.35,0,0,1-.54-.59,2,2,0,0,1-.19-.89,1.76,1.76,0,0,1,.4-1.23,1.47,1.47,0,0,1,1.14-.44,1.42,1.42,0,0,1,1.11.45A1.75,1.75,0,0,1,100,50.13Zm-2.36,0q0,1.12.83,1.12t.82-1.12q0-1.11-.83-1.11a.7.7,0,0,0-.63.29A1.46,1.46,0,0,0,97.69,50.13Z"/><path class="cls-1" d="M102.34,48.45a1.66,1.66,0,0,1,.34,0l-.07.64a1.3,1.3,0,0,0-.3,0,.88.88,0,0,0-.67.27,1,1,0,0,0-.26.7v1.69h-.69V48.51h.54l.09.57h0a1.28,1.28,0,0,1,.42-.46A1,1,0,0,1,102.34,48.45Z"/><path class="cls-1" d="M105.19,51.75l-.14-.45h0a1.32,1.32,0,0,1-.47.4,1.49,1.49,0,0,1-.61.11,1,1,0,0,1-.75-.26,1,1,0,0,1-.27-.73.86.86,0,0,1,.37-.76,2.15,2.15,0,0,1,1.13-.28l.56,0V49.6a.65.65,0,0,0-.15-.46.59.59,0,0,0-.45-.15,1.55,1.55,0,0,0-.48.07,3.6,3.6,0,0,0-.44.17l-.22-.49a2.4,2.4,0,0,1,.58-.21,2.66,2.66,0,0,1,.59-.07,1.4,1.4,0,0,1,.93.27,1.06,1.06,0,0,1,.31.85v2.18Zm-1-.47a.85.85,0,0,0,.6-.21.76.76,0,0,0,.23-.59v-.28l-.42,0a1.43,1.43,0,0,0-.71.16.5.5,0,0,0-.22.44.43.43,0,0,0,.13.33A.55.55,0,0,0,104.17,51.28Z"/><path class="cls-1" d="M110.6,50.13a1.77,1.77,0,0,1-.41,1.24,1.46,1.46,0,0,1-1.13.45,1.55,1.55,0,0,1-.8-.21,1.35,1.35,0,0,1-.54-.59,2,2,0,0,1-.19-.89,1.76,1.76,0,0,1,.4-1.23,1.47,1.47,0,0,1,1.14-.44,1.42,1.42,0,0,1,1.11.45A1.75,1.75,0,0,1,110.6,50.13Zm-2.36,0q0,1.12.83,1.12t.82-1.12q0-1.11-.83-1.11a.7.7,0,0,0-.63.29A1.46,1.46,0,0,0,108.24,50.13Z"/><path class="cls-1" d="M112.61,51.81a1.42,1.42,0,0,1-1.12-.43,2.17,2.17,0,0,1,0-2.49,1.48,1.48,0,0,1,1.16-.44,2.17,2.17,0,0,1,.92.19l-.21.55a2.09,2.09,0,0,0-.72-.17q-.84,0-.84,1.12A1.34,1.34,0,0,0,112,51a.72.72,0,0,0,.61.27,1.76,1.76,0,0,0,.87-.23v.6a1.36,1.36,0,0,1-.39.16A2.36,2.36,0,0,1,112.61,51.81Z"/><path class="cls-1" d="M116.93,51.75h-.69v-2a.87.87,0,0,0-.15-.56.58.58,0,0,0-.48-.18.76.76,0,0,0-.64.26,1.43,1.43,0,0,0-.2.87v1.61h-.69V47.19h.69v1.16a5.4,5.4,0,0,1,0,.59h0a1,1,0,0,1,.39-.36,1.26,1.26,0,0,1,.58-.13,1,1,0,0,1,1.18,1.19Z"/><path class="cls-1" d="M121.15,50.83a.85.85,0,0,1-.35.73,1.65,1.65,0,0,1-1,.25,2.34,2.34,0,0,1-1-.2V51a2.55,2.55,0,0,0,1.06.26q.64,0,.64-.38a.3.3,0,0,0-.07-.21.83.83,0,0,0-.23-.17,4,4,0,0,0-.45-.2,2.07,2.07,0,0,1-.76-.43.8.8,0,0,1-.2-.56.74.74,0,0,1,.34-.65,1.59,1.59,0,0,1,.91-.23,2.58,2.58,0,0,1,1.08.23l-.22.52A2.4,2.4,0,0,0,120,49q-.54,0-.54.31a.31.31,0,0,0,.14.26,3.12,3.12,0,0,0,.62.29,2.83,2.83,0,0,1,.58.28.86.86,0,0,1,.27.3A.87.87,0,0,1,121.15,50.83Z"/><path class="cls-1" d="M124.38,51.75h-.69v-2a.9.9,0,0,0-.14-.55.52.52,0,0,0-.44-.18.67.67,0,0,0-.58.26,1.52,1.52,0,0,0-.19.86v1.61h-.69V48.51h.54l.1.42h0a.9.9,0,0,1,.39-.36,1.26,1.26,0,0,1,.56-.13,1,1,0,0,1,1,.51h0a1,1,0,0,1,.4-.37,1.28,1.28,0,0,1,.6-.13,1.09,1.09,0,0,1,.85.29,1.3,1.3,0,0,1,.27.89v2.11h-.69v-2a.9.9,0,0,0-.14-.55.52.52,0,0,0-.44-.18.69.69,0,0,0-.59.25,1.29,1.29,0,0,0-.19.77Z"/><path class="cls-1" d="M129.24,51.75l-.14-.45h0a1.32,1.32,0,0,1-.47.4,1.49,1.49,0,0,1-.61.11,1,1,0,0,1-.75-.26,1,1,0,0,1-.27-.73.86.86,0,0,1,.37-.76,2.15,2.15,0,0,1,1.13-.28l.56,0V49.6a.65.65,0,0,0-.15-.46.59.59,0,0,0-.45-.15,1.55,1.55,0,0,0-.48.07,3.6,3.6,0,0,0-.44.17l-.22-.49a2.4,2.4,0,0,1,.58-.21,2.66,2.66,0,0,1,.59-.07,1.4,1.4,0,0,1,.93.27,1.06,1.06,0,0,1,.31.85v2.18Zm-1-.47a.85.85,0,0,0,.6-.21.76.76,0,0,0,.23-.59v-.28l-.42,0a1.43,1.43,0,0,0-.71.16.5.5,0,0,0-.22.44.43.43,0,0,0,.13.33A.55.55,0,0,0,128.22,51.28Zm1-3.83a.64.64,0,0,1-.19.48.79.79,0,0,1-1,0,.71.71,0,0,1,0-1,.69.69,0,0,1,.51-.18.71.71,0,0,1,.5.18A.61.61,0,0,1,129.19,47.45Zm-.39,0a.3.3,0,0,0-.09-.23.31.31,0,0,0-.22-.08.32.32,0,0,0-.23.08.3.3,0,0,0-.09.23.28.28,0,0,0,.31.31.32.32,0,0,0,.22-.08A.3.3,0,0,0,128.8,47.46Z"/><polygon class="cls-1" points="193.3 25.96 191.28 28.97 187.99 30.1 190.03 33.09 190.02 36.81 193.3 35.64 196.58 36.81 196.56 33.09 198.61 30.1 195.32 28.97 193.3 25.96"/><polygon class="cls-1" points="15.46 26.96 13.45 29.97 10.15 31.1 12.2 34.09 12.18 37.81 15.46 36.64 18.75 37.81 18.73 34.09 20.77 31.1 17.48 29.97 15.46 26.96"/></g><g id="Layer_2" data-name="Layer 2"><path class="cls-1" d="M21,20.78q3.77-1.36,7.57-2.59a14.39,14.39,0,0,1,4.08-.73,9.5,9.5,0,0,1,3.57.55A7,7,0,0,1,39,19.85,7.46,7.46,0,0,1,40.67,23a6.73,6.73,0,0,1,.26,2.66,8.16,8.16,0,0,1-.5,2,7.15,7.15,0,0,1-1,1.72q2.92,2.7,5.73,5.46-3.83,1-7.63,2.23-2.3-2-4.66-4l1.63,5Q31.25,39.09,28,40.24Zm11,10.46a13.16,13.16,0,0,0,2.3-1q2.24,1.89,4.41,3.83l1-.29q-2.28-2-4.63-4a6.4,6.4,0,0,0,2.19-2.56,4.71,4.71,0,0,0,.12-3.35,4.76,4.76,0,0,0-1.23-2.13,5.09,5.09,0,0,0-2-1.19,7.22,7.22,0,0,0-2.58-.3,11.35,11.35,0,0,0-3,.57L25.13,22l5.12,14.86.79-.27L29.52,32.1Zm-2.8.15-3.07-9,2.67-.89a8.08,8.08,0,0,1,5-.29,4,4,0,0,1,2.69,2.88A4.1,4.1,0,0,1,36,28a8.19,8.19,0,0,1-4.12,2.59ZM31.21,28l.35-.11a4.2,4.2,0,0,0,1.89-1.16,1.9,1.9,0,0,0,.32-2,1.88,1.88,0,0,0-1.38-1.42,4.18,4.18,0,0,0-2.24.16l-.36.12Z"/><path class="cls-1" d="M49.87,12.33q2.69-.62,5.4-1.17,6.35,9.25,12,18.78-3.27.55-6.53,1.2l-1.05-1.69q-3.16.64-6.3,1.37-.13,1-.26,2-3.24.76-6.46,1.62Q47.92,23.39,49.87,12.33Zm.81,18.5.23-1.65q5.17-1.25,10.39-2.25l.89,1.41.88-.17Q58.6,21,53.73,14l-1.27.28q-1.54,8.38-2.65,16.76Zm2.57-16q3.94,5.63,7.62,11.38-4.94,1-9.85,2.14Q52,21.64,53.25,14.88ZM57,25.36q-1.09-1.62-2.2-3.24-.34,1.93-.66,3.86Z"/><path class="cls-1" d="M74.17,13.5q-3.07.4-6.13.87.72-2.86,1.48-5.71Q76.79,7.61,84.1,7q-3.32,7.94-6.15,16,3.51-.41,7-.72-.84,2.8-1.63,5.6-7.26.7-14.48,1.87Q71.27,21.57,74.17,13.5Zm7.3,12,.24-.77q-3.86.4-7.71.92,2.6-7.91,5.68-15.76-4,.42-8,1l-.2.78q3.46-.48,6.94-.87-3,7.87-5.57,15.79Q77.12,26,81.47,25.51Z"/><path class="cls-1" d="M86.53,6.79q3-.23,6-.38,3.19,3.81,6.18,7.7,2.77-4,5.72-8,3,0,6,.05l-.43,20.67q-3.35-.07-6.7,0l-.06-7.44q-2.18,3.12-4.25,6.28-2.25-3-4.62-6L94.79,27q-3.35.15-6.69.41Zm5.37,17.88-.83-14.2q4.07,4.82,7.84,9.78,3.47-5.15,7.26-10.19l-.05,14.23h.83l.11-15.72h-.88q-3.81,5.09-7.3,10.28Q95.09,13.85,91,9L90.11,9l1,15.69Z"/><path class="cls-1" d="M121.11,6.58q2.74.17,5.48.41,3.44,10.67,6.16,21.42-3.29-.4-6.58-.7l-.53-1.91q-3.2-.28-6.4-.48l-.8,1.82q-3.3-.19-6.6-.29Q116.12,16.63,121.11,6.58Zm-4.46,18,.68-1.52q5.28.27,10.55.79l.45,1.6.89.09Q127,17.39,124.31,9.29L123,9.2q-3.84,7.6-7.26,15.32Zm7-14.57q2.16,6.52,4.05,13.07-5-.48-10-.75Q120.5,16.11,123.61,10Zm.63,11.12q-.58-1.87-1.18-3.73-.87,1.75-1.72,3.51Z"/><path class="cls-1" d="M136.89,13.56q-2.05-.27-4.11-.5l.61-5.39q8,.9,15.86,2.32l-1,5.34q-2-.37-4.09-.7l-2.44,15.06q-3.43-.56-6.87-1Zm2.23,13.21L141.31,12q2.4.36,4.8.76l.12-.73q-5.25-.88-10.52-1.54l-.09.74q2.41.3,4.81.65l-2.14,14.82Z"/><path class="cls-1" d="M156,11.3q2.7.56,5.39,1.19,1.93,11.06,3.12,22.09-3.22-.87-6.45-1.63-.12-1-.25-2-3.14-.74-6.3-1.38l-1.06,1.68q-3.25-.66-6.52-1.22Q149.61,20.54,156,11.3Zm-7,17.16.89-1.4q5.21,1,10.38,2.28.11.83.22,1.65l.87.22q-1.09-8.37-2.6-16.77l-1.27-.28q-4.89,7-9.38,14.13ZM158,15q1.23,6.76,2.19,13.52-4.9-1.19-9.85-2.16Q154,20.65,158,15Zm-.94,11.1q-.31-1.93-.65-3.86-1.12,1.61-2.21,3.23Z"/><path class="cls-1" d="M177.68,22.52q-3-.93-6-1.78,1.85-2.29,3.74-4.56,7.1,2.09,14.1,4.61-6.39,5.81-12.34,11.9,3.4,1.1,6.77,2.31-1.95,2.18-3.85,4.4-7-2.42-14.07-4.38Q171.65,28.63,177.68,22.52Zm1.68,14,.55-.6q-3.72-1.27-7.47-2.41,5.69-6.1,11.81-11.93-3.88-1.31-7.79-2.5l-.51.62q3.38,1,6.73,2.13-6.07,5.87-11.72,12Q175.18,35.08,179.37,36.5Z"/></g></svg>