<?xml version="1.0" encoding="utf-8"?>
<!-- Generator: Adobe Illustrator 21.0.2, SVG Export Plug-In . SVG Version: 6.00 Build 0)  -->
<svg version="1.1" xmlns="http://www.w3.org/2000/svg" xmlns:xlink="http://www.w3.org/1999/xlink" x="0px" y="0px"
	 viewBox="0 0 211 58" style="enable-background:new 0 0 211 58;" xml:space="preserve">
<style type="text/css">
	.st0{fill:#93278F;}
	.st1{fill:#93278F;stroke:#93278F;stroke-miterlimit:10;}
</style>
<g id="Layer_1">
	<g>
		<path class="st0" d="M72.3,42.8h-1.4l-3.5-5.7h0l0,0.3c0,0.6,0.1,1.2,0.1,1.7v3.7h-1.1v-7.1h1.4l3.5,5.7h0c0-0.1,0-0.3,0-0.8
			c0-0.5,0-0.8,0-1.1v-3.7h1.1V42.8z"/>
		<path class="st0" d="M73,37.4h1.2l1.1,3.1c0.2,0.4,0.3,0.8,0.3,1.2h0c0-0.2,0.1-0.4,0.2-0.7c0.1-0.3,0.5-1.5,1.2-3.6h1.2L76,43.5
			c-0.4,1.1-1.1,1.7-2.1,1.7c-0.3,0-0.5,0-0.7-0.1v-0.9c0.2,0,0.4,0.1,0.6,0.1c0.6,0,0.9-0.3,1.2-1l0.2-0.5L73,37.4z"/>
		<path class="st0" d="M85,42.8L84.8,42h-0.1c-0.2,0.3-0.4,0.4-0.7,0.6s-0.6,0.2-1,0.2c-0.7,0-1.1-0.2-1.5-0.5s-0.5-0.8-0.5-1.5
			v-3.5h1.2v3.3c0,0.4,0.1,0.7,0.3,0.9c0.2,0.2,0.4,0.3,0.8,0.3c0.5,0,0.8-0.1,1.1-0.4c0.2-0.3,0.3-0.8,0.3-1.4v-2.7h1.2v5.4H85z"/>
		<path class="st0" d="M92,42.8h-1.2v-3.3c0-0.4-0.1-0.7-0.3-0.9s-0.4-0.3-0.8-0.3c-0.5,0-0.8,0.1-1.1,0.4s-0.3,0.8-0.3,1.4v2.7
			h-1.1v-5.4h0.9l0.2,0.7h0.1c0.2-0.3,0.4-0.5,0.7-0.6s0.6-0.2,1-0.2c1.3,0,1.9,0.7,1.9,2V42.8z"/>
		<path class="st0" d="M95.1,42.8c-0.7,0-1.2-0.2-1.6-0.7s-0.6-1.2-0.6-2.1c0-0.9,0.2-1.6,0.6-2.1c0.4-0.5,0.9-0.7,1.6-0.7
			c0.7,0,1.2,0.3,1.6,0.8h0.1c-0.1-0.4-0.1-0.7-0.1-0.9v-2h1.2v7.6H97L96.8,42h-0.1C96.3,42.6,95.8,42.8,95.1,42.8z M95.4,41.9
			c0.5,0,0.8-0.1,1-0.4c0.2-0.3,0.3-0.7,0.3-1.3v-0.2c0-0.7-0.1-1.2-0.3-1.5s-0.6-0.4-1-0.4c-0.4,0-0.7,0.2-0.9,0.5
			c-0.2,0.3-0.3,0.8-0.3,1.4c0,0.6,0.1,1.1,0.3,1.4C94.7,41.8,95,41.9,95.4,41.9z"/>
		<path class="st0" d="M101.6,42.8c-0.8,0-1.5-0.2-2-0.7c-0.5-0.5-0.7-1.2-0.7-2c0-0.9,0.2-1.6,0.7-2.1s1-0.8,1.8-0.8
			c0.7,0,1.3,0.2,1.7,0.6s0.6,1,0.6,1.8v0.6h-3.6c0,0.5,0.2,0.9,0.4,1.2c0.3,0.3,0.6,0.4,1.1,0.4c0.3,0,0.6,0,0.9-0.1
			c0.3-0.1,0.6-0.2,0.9-0.3v0.9c-0.3,0.1-0.6,0.2-0.8,0.3S101.9,42.8,101.6,42.8z M101.3,38.1c-0.4,0-0.7,0.1-0.9,0.3
			s-0.4,0.6-0.4,1h2.5c0-0.4-0.1-0.8-0.3-1C102,38.2,101.7,38.1,101.3,38.1z"/>
		<path class="st0" d="M107.4,37.3c0.2,0,0.4,0,0.6,0l-0.1,1.1c-0.2,0-0.3-0.1-0.5-0.1c-0.5,0-0.8,0.1-1.1,0.4s-0.4,0.7-0.4,1.2v2.8
			h-1.1v-5.4h0.9l0.2,1h0.1c0.2-0.3,0.4-0.6,0.7-0.8S107.1,37.3,107.4,37.3z"/>
		<path class="st0" d="M113.4,42.8h-1.2v-3.3c0-0.4-0.1-0.7-0.3-0.9s-0.4-0.3-0.8-0.3c-0.5,0-0.8,0.1-1.1,0.4
			c-0.2,0.3-0.3,0.8-0.3,1.4v2.7h-1.1v-7.6h1.1v1.9c0,0.3,0,0.6-0.1,1h0.1c0.2-0.3,0.4-0.5,0.7-0.6s0.6-0.2,1-0.2c1.3,0,2,0.7,2,2
			V42.8z"/>
		<path class="st0" d="M118.1,42.8l-0.2-0.8h0c-0.3,0.3-0.5,0.6-0.8,0.7c-0.3,0.1-0.6,0.2-1,0.2c-0.5,0-0.9-0.1-1.2-0.4
			s-0.4-0.7-0.4-1.2c0-0.6,0.2-1,0.6-1.3s1-0.4,1.9-0.5l0.9,0v-0.3c0-0.3-0.1-0.6-0.2-0.8c-0.2-0.2-0.4-0.3-0.7-0.3
			c-0.3,0-0.5,0-0.8,0.1s-0.5,0.2-0.7,0.3l-0.4-0.8c0.3-0.2,0.6-0.3,1-0.3c0.3-0.1,0.7-0.1,1-0.1c0.7,0,1.2,0.1,1.6,0.4
			s0.5,0.8,0.5,1.4v3.6H118.1z M116.4,42c0.4,0,0.8-0.1,1-0.3c0.3-0.2,0.4-0.6,0.4-1v-0.5l-0.7,0c-0.5,0-0.9,0.1-1.2,0.3
			c-0.2,0.2-0.4,0.4-0.4,0.7c0,0.2,0.1,0.4,0.2,0.6C115.9,41.9,116.1,42,116.4,42z M118,35.6c0,0.3-0.1,0.6-0.3,0.8
			c-0.2,0.2-0.5,0.3-0.8,0.3s-0.6-0.1-0.8-0.3c-0.2-0.2-0.3-0.5-0.3-0.8c0-0.3,0.1-0.6,0.3-0.8s0.5-0.3,0.8-0.3
			c0.3,0,0.6,0.1,0.8,0.3S118,35.3,118,35.6z M117.4,35.6c0-0.2,0-0.3-0.1-0.4c-0.1-0.1-0.2-0.1-0.4-0.1c-0.2,0-0.3,0-0.4,0.1
			c-0.1,0.1-0.1,0.2-0.1,0.4c0,0.3,0.2,0.5,0.5,0.5c0.1,0,0.3,0,0.4-0.1C117.3,35.9,117.4,35.8,117.4,35.6z"/>
		<path class="st0" d="M121.4,42.8h-1.1v-7.6h1.1V42.8z"/>
		<path class="st0" d="M123.9,42.8h-1.1v-7.6h1.1V42.8z"/>
		<path class="st0" d="M129.9,42.8h-1.2v-3.3c0-0.4-0.1-0.7-0.3-0.9s-0.4-0.3-0.8-0.3c-0.5,0-0.8,0.1-1.1,0.4s-0.3,0.8-0.3,1.4v2.7
			h-1.1v-5.4h0.9l0.2,0.7h0.1c0.2-0.3,0.4-0.5,0.7-0.6s0.6-0.2,1-0.2c1.3,0,1.9,0.7,1.9,2V42.8z"/>
		<path class="st0" d="M131.2,35.9c0-0.2,0.1-0.4,0.2-0.5s0.3-0.2,0.5-0.2c0.2,0,0.4,0.1,0.5,0.2s0.2,0.3,0.2,0.5
			c0,0.2-0.1,0.3-0.2,0.5c-0.1,0.1-0.3,0.2-0.5,0.2c-0.2,0-0.4-0.1-0.5-0.2C131.2,36.3,131.2,36.1,131.2,35.9z M132.4,42.8h-1.1
			v-5.4h1.1V42.8z"/>
		<path class="st0" d="M138.5,42.8h-1.2v-3.3c0-0.4-0.1-0.7-0.3-0.9s-0.4-0.3-0.8-0.3c-0.5,0-0.8,0.1-1.1,0.4s-0.3,0.8-0.3,1.4v2.7
			h-1.1v-5.4h0.9l0.2,0.7h0.1c0.2-0.3,0.4-0.5,0.7-0.6s0.6-0.2,1-0.2c1.3,0,1.9,0.7,1.9,2V42.8z"/>
		<path class="st0" d="M144.3,37.4V38l-0.9,0.2c0.1,0.1,0.2,0.3,0.2,0.4s0.1,0.3,0.1,0.5c0,0.6-0.2,1-0.6,1.3s-0.9,0.5-1.6,0.5
			c-0.2,0-0.3,0-0.5,0c-0.2,0.2-0.4,0.3-0.4,0.5c0,0.1,0.1,0.2,0.2,0.3s0.3,0.1,0.6,0.1h0.9c0.6,0,1,0.1,1.4,0.4s0.5,0.6,0.5,1.1
			c0,0.6-0.3,1.1-0.8,1.4s-1.2,0.5-2.2,0.5c-0.7,0-1.3-0.1-1.7-0.4s-0.6-0.6-0.6-1.1c0-0.3,0.1-0.6,0.3-0.8c0.2-0.2,0.5-0.4,0.9-0.5
			c-0.2-0.1-0.3-0.2-0.4-0.3c-0.1-0.1-0.1-0.3-0.1-0.5c0-0.2,0.1-0.4,0.2-0.5s0.3-0.3,0.5-0.4c-0.3-0.1-0.5-0.3-0.7-0.6
			c-0.2-0.3-0.3-0.6-0.3-1c0-0.6,0.2-1,0.6-1.4s0.9-0.5,1.6-0.5c0.2,0,0.3,0,0.5,0c0.2,0,0.3,0,0.4,0.1H144.3z M140.1,43.6
			c0,0.2,0.1,0.4,0.3,0.6s0.5,0.2,0.9,0.2c0.6,0,1.1-0.1,1.4-0.3s0.5-0.4,0.5-0.7c0-0.2-0.1-0.4-0.3-0.5c-0.2-0.1-0.5-0.1-0.9-0.1
			h-0.9c-0.3,0-0.6,0.1-0.8,0.2C140.2,43.1,140.1,43.3,140.1,43.6z M140.6,39.1c0,0.3,0.1,0.6,0.3,0.8s0.4,0.3,0.7,0.3
			c0.7,0,1-0.4,1-1.1c0-0.4-0.1-0.6-0.2-0.8c-0.2-0.2-0.4-0.3-0.7-0.3c-0.3,0-0.6,0.1-0.8,0.3S140.6,38.7,140.6,39.1z"/>
	</g>
	<g>
		<path class="st0" d="M84.7,49h-0.8v2.7h-0.7V49h-0.5v-0.3l0.5-0.2v-0.2c0-0.4,0.1-0.7,0.3-0.9c0.2-0.2,0.5-0.3,0.8-0.3
			c0.2,0,0.5,0,0.7,0.1l-0.2,0.5c-0.2-0.1-0.3-0.1-0.5-0.1c-0.2,0-0.3,0-0.3,0.1c-0.1,0.1-0.1,0.2-0.1,0.4v0.2h0.8V49z"/>
		<path class="st0" d="M88,50.1c0,0.5-0.1,0.9-0.4,1.2s-0.6,0.4-1.1,0.4c-0.3,0-0.6-0.1-0.8-0.2s-0.4-0.3-0.5-0.6s-0.2-0.6-0.2-0.9
			c0-0.5,0.1-0.9,0.4-1.2s0.6-0.4,1.1-0.4c0.5,0,0.8,0.2,1.1,0.5C87.8,49.2,88,49.6,88,50.1z M85.5,47.7c0-0.1,0-0.2,0.1-0.3
			c0.1-0.1,0.1-0.1,0.2-0.1c0.1,0,0.2,0,0.2,0.1s0.1,0.1,0.1,0.3c0,0.1,0,0.2-0.1,0.2S85.9,48,85.8,48c-0.1,0-0.2,0-0.2-0.1
			S85.5,47.8,85.5,47.7z M85.6,50.1c0,0.7,0.3,1.1,0.8,1.1c0.5,0,0.8-0.4,0.8-1.1c0-0.7-0.3-1.1-0.8-1.1c-0.3,0-0.5,0.1-0.6,0.3
			S85.6,49.8,85.6,50.1z M86.7,47.7c0-0.1,0-0.2,0.1-0.3c0.1-0.1,0.1-0.1,0.2-0.1c0.1,0,0.2,0,0.2,0.1s0.1,0.1,0.1,0.3
			c0,0.1,0,0.2-0.1,0.3C87.2,48,87.1,48,87,48c-0.1,0-0.2,0-0.2-0.1S86.7,47.8,86.7,47.7z"/>
		<path class="st0" d="M90.3,48.5c0.1,0,0.3,0,0.3,0l-0.1,0.6c-0.1,0-0.2,0-0.3,0c-0.3,0-0.5,0.1-0.7,0.3s-0.3,0.4-0.3,0.7v1.7h-0.7
			v-3.2h0.5l0.1,0.6h0c0.1-0.2,0.2-0.3,0.4-0.5S90.1,48.5,90.3,48.5z"/>
		<path class="st0" d="M94.5,50.8c0,0.3-0.1,0.6-0.3,0.7c-0.2,0.2-0.6,0.3-1,0.3c-0.4,0-0.8-0.1-1-0.2V51c0.4,0.2,0.7,0.3,1.1,0.3
			c0.4,0,0.6-0.1,0.6-0.4c0-0.1,0-0.2-0.1-0.2s-0.1-0.1-0.2-0.2s-0.3-0.1-0.4-0.2c-0.4-0.1-0.6-0.3-0.8-0.4s-0.2-0.3-0.2-0.6
			c0-0.3,0.1-0.5,0.3-0.6s0.5-0.2,0.9-0.2c0.4,0,0.7,0.1,1.1,0.2l-0.2,0.5c-0.3-0.1-0.6-0.2-0.9-0.2c-0.4,0-0.5,0.1-0.5,0.3
			c0,0.1,0,0.2,0.1,0.3s0.3,0.2,0.6,0.3c0.3,0.1,0.5,0.2,0.6,0.3s0.2,0.2,0.3,0.3C94.4,50.5,94.5,50.7,94.5,50.8z"/>
		<path class="st0" d="M96.2,51.3c0.2,0,0.3,0,0.5-0.1v0.5c-0.1,0-0.2,0.1-0.3,0.1c-0.1,0-0.2,0-0.4,0c-0.7,0-1-0.3-1-1V49h-0.4
			v-0.3l0.5-0.3l0.2-0.7h0.4v0.7h0.9V49h-0.9v1.7c0,0.2,0,0.3,0.1,0.4C96,51.2,96.1,51.3,96.2,51.3z"/>
		<path class="st0" d="M100,50.1c0,0.5-0.1,0.9-0.4,1.2s-0.6,0.4-1.1,0.4c-0.3,0-0.6-0.1-0.8-0.2s-0.4-0.3-0.5-0.6S97,50.5,97,50.1
			c0-0.5,0.1-0.9,0.4-1.2s0.6-0.4,1.1-0.4c0.5,0,0.8,0.2,1.1,0.5C99.9,49.2,100,49.6,100,50.1z M97.7,50.1c0,0.7,0.3,1.1,0.8,1.1
			c0.5,0,0.8-0.4,0.8-1.1c0-0.7-0.3-1.1-0.8-1.1c-0.3,0-0.5,0.1-0.6,0.3S97.7,49.8,97.7,50.1z"/>
		<path class="st0" d="M102.3,48.5c0.1,0,0.3,0,0.3,0l-0.1,0.6c-0.1,0-0.2,0-0.3,0c-0.3,0-0.5,0.1-0.7,0.3s-0.3,0.4-0.3,0.7v1.7
			h-0.7v-3.2h0.5l0.1,0.6h0c0.1-0.2,0.2-0.3,0.4-0.5S102.1,48.5,102.3,48.5z"/>
		<path class="st0" d="M105.2,51.8l-0.1-0.5h0c-0.2,0.2-0.3,0.3-0.5,0.4c-0.2,0.1-0.4,0.1-0.6,0.1c-0.3,0-0.6-0.1-0.7-0.3
			s-0.3-0.4-0.3-0.7c0-0.3,0.1-0.6,0.4-0.8s0.6-0.3,1.1-0.3l0.6,0v-0.2c0-0.2,0-0.4-0.1-0.5c-0.1-0.1-0.2-0.2-0.4-0.2
			c-0.2,0-0.3,0-0.5,0.1s-0.3,0.1-0.4,0.2l-0.2-0.5c0.2-0.1,0.4-0.2,0.6-0.2s0.4-0.1,0.6-0.1c0.4,0,0.7,0.1,0.9,0.3s0.3,0.5,0.3,0.8
			v2.2H105.2z M104.2,51.3c0.2,0,0.5-0.1,0.6-0.2s0.2-0.3,0.2-0.6v-0.3l-0.4,0c-0.3,0-0.6,0.1-0.7,0.2c-0.1,0.1-0.2,0.2-0.2,0.4
			c0,0.1,0,0.3,0.1,0.3C103.9,51.2,104,51.3,104.2,51.3z"/>
		<path class="st0" d="M110.6,50.1c0,0.5-0.1,0.9-0.4,1.2s-0.6,0.4-1.1,0.4c-0.3,0-0.6-0.1-0.8-0.2s-0.4-0.3-0.5-0.6
			s-0.2-0.6-0.2-0.9c0-0.5,0.1-0.9,0.4-1.2s0.6-0.4,1.1-0.4c0.5,0,0.8,0.2,1.1,0.5C110.5,49.2,110.6,49.6,110.6,50.1z M108.2,50.1
			c0,0.7,0.3,1.1,0.8,1.1c0.5,0,0.8-0.4,0.8-1.1c0-0.7-0.3-1.1-0.8-1.1c-0.3,0-0.5,0.1-0.6,0.3S108.2,49.8,108.2,50.1z"/>
		<path class="st0" d="M112.6,51.8c-0.5,0-0.9-0.1-1.1-0.4c-0.3-0.3-0.4-0.7-0.4-1.2c0-0.5,0.1-1,0.4-1.3s0.7-0.4,1.2-0.4
			c0.3,0,0.6,0.1,0.9,0.2l-0.2,0.6c-0.3-0.1-0.5-0.2-0.7-0.2c-0.6,0-0.8,0.4-0.8,1.1c0,0.4,0.1,0.6,0.2,0.8s0.3,0.3,0.6,0.3
			c0.3,0,0.6-0.1,0.9-0.2v0.6c-0.1,0.1-0.3,0.1-0.4,0.2S112.8,51.8,112.6,51.8z"/>
		<path class="st0" d="M116.9,51.8h-0.7v-2c0-0.2-0.1-0.4-0.2-0.6s-0.3-0.2-0.5-0.2c-0.3,0-0.5,0.1-0.6,0.3
			c-0.1,0.2-0.2,0.5-0.2,0.9v1.6h-0.7v-4.6h0.7v1.2c0,0.2,0,0.4,0,0.6h0c0.1-0.2,0.2-0.3,0.4-0.4s0.4-0.1,0.6-0.1
			c0.8,0,1.2,0.4,1.2,1.2V51.8z"/>
		<path class="st0" d="M121.1,50.8c0,0.3-0.1,0.6-0.3,0.7c-0.2,0.2-0.6,0.3-1,0.3c-0.4,0-0.8-0.1-1-0.2V51c0.4,0.2,0.7,0.3,1.1,0.3
			c0.4,0,0.6-0.1,0.6-0.4c0-0.1,0-0.2-0.1-0.2s-0.1-0.1-0.2-0.2s-0.3-0.1-0.4-0.2c-0.4-0.1-0.6-0.3-0.8-0.4s-0.2-0.3-0.2-0.6
			c0-0.3,0.1-0.5,0.3-0.6s0.5-0.2,0.9-0.2c0.4,0,0.7,0.1,1.1,0.2l-0.2,0.5c-0.3-0.1-0.6-0.2-0.9-0.2c-0.4,0-0.5,0.1-0.5,0.3
			c0,0.1,0,0.2,0.1,0.3s0.3,0.2,0.6,0.3c0.3,0.1,0.5,0.2,0.6,0.3s0.2,0.2,0.3,0.3C121.1,50.5,121.1,50.7,121.1,50.8z"/>
		<path class="st0" d="M124.4,51.8h-0.7v-2c0-0.2,0-0.4-0.1-0.6s-0.2-0.2-0.4-0.2c-0.3,0-0.5,0.1-0.6,0.3c-0.1,0.2-0.2,0.5-0.2,0.9
			v1.6h-0.7v-3.2h0.5l0.1,0.4h0c0.1-0.2,0.2-0.3,0.4-0.4s0.4-0.1,0.6-0.1c0.5,0,0.8,0.2,1,0.5h0c0.1-0.2,0.2-0.3,0.4-0.4
			s0.4-0.1,0.6-0.1c0.4,0,0.7,0.1,0.8,0.3s0.3,0.5,0.3,0.9v2.1h-0.7v-2c0-0.2,0-0.4-0.1-0.6s-0.2-0.2-0.4-0.2
			c-0.3,0-0.5,0.1-0.6,0.2c-0.1,0.2-0.2,0.4-0.2,0.8V51.8z"/>
		<path class="st0" d="M129.2,51.8l-0.1-0.5h0c-0.2,0.2-0.3,0.3-0.5,0.4c-0.2,0.1-0.4,0.1-0.6,0.1c-0.3,0-0.6-0.1-0.7-0.3
			s-0.3-0.4-0.3-0.7c0-0.3,0.1-0.6,0.4-0.8s0.6-0.3,1.1-0.3l0.6,0v-0.2c0-0.2,0-0.4-0.1-0.5c-0.1-0.1-0.2-0.2-0.4-0.2
			c-0.2,0-0.3,0-0.5,0.1s-0.3,0.1-0.4,0.2l-0.2-0.5c0.2-0.1,0.4-0.2,0.6-0.2s0.4-0.1,0.6-0.1c0.4,0,0.7,0.1,0.9,0.3s0.3,0.5,0.3,0.8
			v2.2H129.2z M128.2,51.3c0.2,0,0.5-0.1,0.6-0.2s0.2-0.3,0.2-0.6v-0.3l-0.4,0c-0.3,0-0.6,0.1-0.7,0.2c-0.1,0.1-0.2,0.2-0.2,0.4
			c0,0.1,0,0.3,0.1,0.3C127.9,51.2,128,51.3,128.2,51.3z M129.2,47.5c0,0.2-0.1,0.4-0.2,0.5c-0.1,0.1-0.3,0.2-0.5,0.2
			s-0.4-0.1-0.5-0.2s-0.2-0.3-0.2-0.5c0-0.2,0.1-0.4,0.2-0.5s0.3-0.2,0.5-0.2c0.2,0,0.4,0.1,0.5,0.2S129.2,47.3,129.2,47.5z
			 M128.8,47.5c0-0.1,0-0.2-0.1-0.2c-0.1-0.1-0.1-0.1-0.2-0.1c-0.1,0-0.2,0-0.2,0.1c-0.1,0.1-0.1,0.1-0.1,0.2c0,0.2,0.1,0.3,0.3,0.3
			c0.1,0,0.2,0,0.2-0.1S128.8,47.6,128.8,47.5z"/>
	</g>
	<polygon class="st1" points="193.3,26 191.3,29 188,30.1 190,33.1 190,36.8 193.3,35.6 196.6,36.8 196.6,33.1 198.6,30.1 195.3,29 
			"/>
	<polygon class="st0" points="15.5,27 13.4,30 10.2,31.1 12.2,34.1 12.2,37.8 15.5,36.6 18.7,37.8 18.7,34.1 20.8,31.1 17.5,30 	"/>
</g>
<g id="Layer_2">
	<g>
		<g>
			<path class="st0" d="M21,20.8c2.5-0.9,5-1.8,7.6-2.6c1.4-0.5,2.8-0.7,4.1-0.7c1.3,0,2.5,0.2,3.6,0.6c1.1,0.4,2,1,2.8,1.8
				c0.8,0.8,1.3,1.9,1.7,3.1c0.3,1,0.4,1.9,0.3,2.7c-0.1,0.8-0.3,1.4-0.5,2c-0.3,0.6-0.6,1.2-1,1.7c1.9,1.8,3.9,3.6,5.7,5.5
				c-2.6,0.7-5.1,1.4-7.6,2.2c-1.5-1.4-3.1-2.7-4.7-4c0.5,1.7,1.1,3.3,1.6,5c-2.2,0.7-4.3,1.4-6.4,2.2C25.7,33.8,23.4,27.3,21,20.8z
				 M32.1,31.2c0.8-0.3,1.6-0.6,2.3-1c1.5,1.3,3,2.5,4.4,3.8c0.3-0.1,0.6-0.2,1-0.3c-1.5-1.4-3.1-2.7-4.6-4c1-0.7,1.7-1.6,2.2-2.6
				c0.4-1,0.5-2.1,0.1-3.3c-0.3-0.9-0.7-1.6-1.2-2.1c-0.6-0.5-1.2-0.9-2-1.2c-0.8-0.2-1.6-0.4-2.6-0.3c-0.9,0-1.9,0.2-3,0.6
				c-1.2,0.4-2.4,0.8-3.5,1.2c1.7,5,3.4,9.9,5.1,14.9c0.3-0.1,0.5-0.2,0.8-0.3c-0.5-1.5-1-3-1.5-4.5C30.4,31.8,31.2,31.5,32.1,31.2z
				 M29.3,31.4c-1-3-2-6-3.1-9c0.9-0.3,1.8-0.6,2.7-0.9c2-0.6,3.7-0.7,5-0.3c1.4,0.4,2.3,1.4,2.7,2.9c0.4,1.5,0.2,2.8-0.6,3.9
				c-0.8,1.1-2.2,2-4.1,2.6C31,30.8,30.1,31.1,29.3,31.4z M31.2,28c0.1,0,0.2-0.1,0.3-0.1c0.8-0.3,1.4-0.6,1.9-1.2
				c0.5-0.5,0.6-1.2,0.3-2c-0.2-0.8-0.7-1.3-1.4-1.4c-0.7-0.2-1.4-0.1-2.2,0.2c-0.1,0-0.2,0.1-0.4,0.1C30.3,25.1,30.7,26.6,31.2,28z
				"/>
			<path class="st0" d="M49.9,12.3c1.8-0.4,3.6-0.8,5.4-1.2c4.2,6.2,8.2,12.4,12,18.8c-2.2,0.4-4.4,0.8-6.5,1.2
				c-0.3-0.6-0.7-1.1-1.1-1.7c-2.1,0.4-4.2,0.9-6.3,1.4c-0.1,0.7-0.2,1.3-0.3,2c-2.2,0.5-4.3,1-6.5,1.6
				C47.5,27.1,48.6,19.7,49.9,12.3z M50.7,30.8c0.1-0.5,0.2-1.1,0.2-1.7c3.4-0.8,6.9-1.6,10.4-2.3c0.3,0.5,0.6,0.9,0.9,1.4
				c0.3-0.1,0.6-0.1,0.9-0.2c-3-4.8-6.1-9.5-9.3-14.2c-0.4,0.1-0.8,0.2-1.3,0.3c-1,5.6-1.9,11.2-2.6,16.8
				C50.1,31,50.4,30.9,50.7,30.8z M53.3,14.9c2.6,3.8,5.2,7.5,7.6,11.4c-3.3,0.6-6.6,1.4-9.9,2.1C51.7,23.9,52.4,19.4,53.3,14.9z
				 M57,25.4c-0.7-1.1-1.5-2.2-2.2-3.2c-0.2,1.3-0.4,2.6-0.7,3.9C55.1,25.8,56.1,25.6,57,25.4z"/>
			<path class="st0" d="M74.2,13.5c-2,0.3-4.1,0.6-6.1,0.9c0.5-1.9,1-3.8,1.5-5.7C74.4,8,79.2,7.4,84.1,7c-2.2,5.3-4.3,10.6-6.1,16
				c2.3-0.3,4.7-0.5,7-0.7c-0.6,1.9-1.1,3.7-1.6,5.6c-4.8,0.5-9.7,1.1-14.5,1.9C70.5,24.3,72.2,18.9,74.2,13.5z M81.5,25.5
				c0.1-0.3,0.2-0.5,0.2-0.8c-2.6,0.3-5.1,0.6-7.7,0.9c1.7-5.3,3.6-10.5,5.7-15.8c-2.7,0.3-5.4,0.6-8,1c-0.1,0.3-0.1,0.5-0.2,0.8
				c2.3-0.3,4.6-0.6,6.9-0.9c-2,5.2-3.9,10.5-5.6,15.8C75.7,26.2,78.6,25.8,81.5,25.5z"/>
			<path class="st0" d="M86.5,6.8c2-0.2,4-0.3,6-0.4c2.1,2.5,4.2,5.1,6.2,7.7c1.8-2.7,3.8-5.4,5.7-8c2,0,4,0,6,0.1
				c-0.1,6.9-0.3,13.8-0.4,20.7c-2.2,0-4.5-0.1-6.7,0c0-2.5,0-5-0.1-7.4c-1.5,2.1-2.9,4.2-4.3,6.3c-1.5-2-3-4-4.6-6
				c0.1,2.5,0.2,5,0.3,7.4c-2.2,0.1-4.5,0.2-6.7,0.4C87.6,20.5,87.1,13.7,86.5,6.8z M91.9,24.7c-0.3-4.7-0.6-9.5-0.8-14.2
				c2.7,3.2,5.3,6.5,7.8,9.8c2.3-3.4,4.7-6.8,7.3-10.2c0,4.7,0,9.5-0.1,14.2c0.3,0,0.6,0,0.8,0c0-5.2,0.1-10.5,0.1-15.7
				c-0.3,0-0.6,0-0.9,0c-2.5,3.4-5,6.8-7.3,10.3c-2.5-3.3-5.2-6.6-7.9-9.9c-0.3,0-0.6,0-0.9,0.1c0.3,5.2,0.6,10.5,1,15.7
				C91.4,24.7,91.6,24.7,91.9,24.7z"/>
			<path class="st0" d="M121.1,6.6c1.8,0.1,3.7,0.3,5.5,0.4c2.3,7.1,4.3,14.3,6.2,21.4c-2.2-0.3-4.4-0.5-6.6-0.7
				c-0.2-0.6-0.3-1.3-0.5-1.9c-2.1-0.2-4.3-0.3-6.4-0.5c-0.3,0.6-0.5,1.2-0.8,1.8c-2.2-0.1-4.4-0.2-6.6-0.3
				C114.7,20,117.8,13.3,121.1,6.6z M116.6,24.6c0.2-0.5,0.5-1,0.7-1.5c3.5,0.2,7,0.4,10.5,0.8c0.2,0.5,0.3,1.1,0.5,1.6
				c0.3,0,0.6,0.1,0.9,0.1c-1.5-5.4-3.1-10.8-4.9-16.2c-0.4,0-0.9-0.1-1.3-0.1c-2.6,5.1-5,10.2-7.3,15.3
				C116.1,24.5,116.4,24.5,116.6,24.6z M123.6,10c1.4,4.3,2.8,8.7,4.1,13.1c-3.3-0.3-6.7-0.6-10-0.7C119.6,18.2,121.5,14.1,123.6,10
				z M124.2,21.1c-0.4-1.2-0.8-2.5-1.2-3.7c-0.6,1.2-1.2,2.3-1.7,3.5C122.3,21,123.3,21,124.2,21.1z"/>
			<path class="st0" d="M136.9,13.6c-1.4-0.2-2.7-0.3-4.1-0.5c0.2-1.8,0.4-3.6,0.6-5.4C138.7,8.3,144,9,149.3,10
				c-0.3,1.8-0.6,3.6-1,5.3c-1.4-0.2-2.7-0.5-4.1-0.7c-0.8,5-1.6,10-2.4,15.1c-2.3-0.4-4.6-0.7-6.9-1
				C135.6,23.6,136.2,18.6,136.9,13.6z M139.1,26.8c0.7-4.9,1.5-9.9,2.2-14.8c1.6,0.2,3.2,0.5,4.8,0.8c0-0.2,0.1-0.5,0.1-0.7
				c-3.5-0.6-7-1.1-10.5-1.5c0,0.2-0.1,0.5-0.1,0.7c1.6,0.2,3.2,0.4,4.8,0.6c-0.7,4.9-1.4,9.9-2.1,14.8
				C138.6,26.7,138.8,26.7,139.1,26.8z"/>
			<path class="st0" d="M156,11.3c1.8,0.4,3.6,0.8,5.4,1.2c1.3,7.4,2.3,14.7,3.1,22.1c-2.1-0.6-4.3-1.1-6.5-1.6
				c-0.1-0.7-0.2-1.3-0.3-2c-2.1-0.5-4.2-1-6.3-1.4c-0.4,0.6-0.7,1.1-1.1,1.7c-2.2-0.4-4.3-0.8-6.5-1.2
				C147.7,23.7,151.7,17.5,156,11.3z M149,28.5c0.3-0.5,0.6-0.9,0.9-1.4c3.5,0.7,6.9,1.4,10.4,2.3c0.1,0.6,0.2,1.1,0.2,1.7
				c0.3,0.1,0.6,0.1,0.9,0.2c-0.7-5.6-1.6-11.2-2.6-16.8c-0.4-0.1-0.8-0.2-1.3-0.3c-3.3,4.7-6.4,9.4-9.4,14.1
				C148.4,28.3,148.7,28.4,149,28.5z M158,15c0.8,4.5,1.6,9,2.2,13.5c-3.3-0.8-6.6-1.5-9.8-2.2C152.8,22.6,155.4,18.8,158,15z
				 M157.1,26.1c-0.2-1.3-0.4-2.6-0.7-3.9c-0.7,1.1-1.5,2.2-2.2,3.2C155.2,25.7,156.1,25.9,157.1,26.1z"/>
			<path class="st0" d="M177.7,22.5c-2-0.6-4-1.2-6-1.8c1.2-1.5,2.5-3.1,3.7-4.6c4.7,1.4,9.4,2.9,14.1,4.6
				c-4.3,3.9-8.4,7.8-12.3,11.9c2.3,0.7,4.5,1.5,6.8,2.3c-1.3,1.5-2.6,2.9-3.8,4.4c-4.7-1.6-9.3-3.1-14.1-4.4
				C169.8,30.8,173.7,26.6,177.7,22.5z M179.4,36.5c0.2-0.2,0.4-0.4,0.5-0.6c-2.5-0.8-5-1.6-7.5-2.4c3.8-4.1,7.7-8,11.8-11.9
				c-2.6-0.9-5.2-1.7-7.8-2.5c-0.2,0.2-0.3,0.4-0.5,0.6c2.3,0.7,4.5,1.4,6.7,2.1c-4,3.9-8,7.9-11.7,12
				C173.8,34.7,176.6,35.6,179.4,36.5z"/>
		</g>
	</g>
</g>
</svg>
